<svg xmlns="http://www.w3.org/2000/svg" xmlns:xlink="http://www.w3.org/1999/xlink" width="150" zoomAndPan="magnify" viewBox="0 0 224.87999 42" height="28" preserveAspectRatio="xMidYMid meet" version="1.0">
<defs>
<g/>
<clipPath id="ea632baae0">
<path d="M 2.554688 9 L 24 9 L 24 32 L 2.554688 32 Z M 2.554688 9 " clip-rule="nonzero"/>
</clipPath><clipPath id="9ac0bddd05">
<path d="M 102.730469 0.511719 L 146.328125 0.511719 L 146.328125 40.511719 L 102.730469 40.511719 Z M 102.730469 0.511719 " clip-rule="nonzero"/>
</clipPath>
<clipPath id="9eb6333cf9">
<path d="M 105.660156 0.511719 L 143.347656 0.511719 C 144.964844 0.511719 146.277344 1.824219 146.277344 3.441406 L 146.277344 37.582031 C 146.277344 39.199219 144.964844 40.511719 143.347656 40.511719 L 105.660156 40.511719 C 104.042969 40.511719 102.730469 39.199219 102.730469 37.582031 L 102.730469 3.441406 C 102.730469 1.824219 104.042969 0.511719 105.660156 0.511719 Z M 105.660156 0.511719 " clip-rule="nonzero"/>
</clipPath>
<clipPath id="f68ce15bf3">
<path d="M 83 0 L 166 0 L 166 41.023438 L 83 41.023438 Z M 83 0 " clip-rule="nonzero"/>
</clipPath>
</defs>
<g clip-path="url(#ea632baae0)">
<g fill="#828282" fill-opacity="1">
<g transform="translate(0.613598, 31.109306)">
<g>
<path d="M 18.78125 -21.203125 L 22.53125 -21.203125 L 22.53125 0 L 19.4375 0 L 5.6875 -15.625 L 5.6875 0 L 1.9375 0 L 1.9375 -21.203125 L 5.203125 -21.203125 L 18.78125 -5.8125 Z M 18.78125 -21.203125 "/></g></g></g></g><g fill="#828282" fill-opacity="1"><g transform="translate(25.076038, 31.109306)"><g><path d="M 18.046875 -21.203125 L 21.921875 -21.203125 L 21.921875 0 L 18.046875 0 L 18.046875 -9.359375 L 5.8125 -9.359375 L 5.8125 0 L 1.9375 0 L 1.9375 -21.203125 L 5.8125 -21.203125 L 5.8125 -12.8125 L 18.046875 -12.8125 Z M 18.046875 -21.203125 "/></g></g></g><g fill="#828282" fill-opacity="1"><g transform="translate(48.93298, 31.109306)"><g><path d="M 7.296875 0 C 5.359375 0 3.9375 -0.453125 3.03125 -1.359375 C 2.125 -2.265625 1.671875 -3.6875 1.671875 -5.625 L 1.671875 -15.5625 C 1.671875 -17.5 2.125 -18.921875 3.03125 -19.828125 C 3.9375 -20.742188 5.359375 -21.203125 7.296875 -21.203125 L 16.921875 -21.203125 C 18.859375 -21.203125 20.28125 -20.742188 21.1875 -19.828125 C 22.101562 -18.921875 22.5625 -17.5 22.5625 -15.5625 L 22.5625 -5.625 C 22.5625 -3.6875 22.101562 -2.265625 21.1875 -1.359375 C 20.28125 -0.453125 18.859375 0 16.921875 0 Z M 8.5625 -3.328125 L 15.65625 -3.328125 C 16.769531 -3.328125 17.550781 -3.550781 18 -4 C 18.457031 -4.457031 18.6875 -5.242188 18.6875 -6.359375 L 18.6875 -14.84375 C 18.6875 -15.945312 18.457031 -16.722656 18 -17.171875 C 17.550781 -17.628906 16.769531 -17.859375 15.65625 -17.859375 L 8.5625 -17.859375 C 7.457031 -17.859375 6.675781 -17.632812 6.21875 -17.1875 C 5.769531 -16.75 5.546875 -15.96875 5.546875 -14.84375 L 5.546875 -6.359375 C 5.546875 -5.222656 5.769531 -4.429688 6.21875 -3.984375 C 6.675781 -3.546875 7.457031 -3.328125 8.5625 -3.328125 Z M 8.5625 -3.328125 "/></g></g></g><g fill="#828282" fill-opacity="1"><g transform="translate(73.153227, 31.109306)"><g><path d="M 22.28125 -21.203125 L 25.5625 -21.203125 L 25.5625 0 L 21.921875 0 L 21.921875 -14.84375 L 14.78125 -4.0625 L 12.71875 -4.0625 L 5.578125 -14.84375 L 5.578125 0 L 1.9375 0 L 1.9375 -21.203125 L 5.359375 -21.203125 L 13.84375 -8.140625 Z M 22.28125 -21.203125 "/></g></g></g><g fill="#828282" fill-opacity="1"><g transform="translate(148.258005, 30.692249)"><g><path d="M 5.8125 -3.453125 L 18.046875 -3.453125 L 18.046875 0 L 1.9375 0 L 1.9375 -21.203125 L 5.8125 -21.203125 Z M 5.8125 -3.453125 "/></g></g></g><g fill="#828282" fill-opacity="1"><g transform="translate(166.786485, 30.692249)"><g><path d="M 19.984375 -21.203125 L 19.984375 -17.75 L 12.171875 -17.75 L 12.171875 0 L 8.296875 0 L 8.296875 -17.75 L 0.484375 -17.75 L 0.484375 -21.203125 Z M 19.984375 -21.203125 "/></g></g></g><g fill="#828282" fill-opacity="1"><g transform="translate(187.252585, 30.692249)"><g><path d="M 29.125 -21.203125 L 33.1875 -21.203125 L 25.4375 0 L 22.015625 0 L 16.6875 -15.40625 L 11.359375 0 L 7.9375 0 L 0.1875 -21.203125 L 4.453125 -21.203125 L 9.90625 -5.203125 L 15.296875 -21.203125 L 18.234375 -21.203125 L 23.65625 -5.203125 Z M 29.125 -21.203125 "/></g></g></g><g clip-path="url(#9ac0bddd05)"><g clip-path="url(#9eb6333cf9)"><path fill="#9f224e" d="M 102.730469 0.511719 L 146.328125 0.511719 L 146.328125 40.511719 L 102.730469 40.511719 Z M 102.730469 0.511719 " fill-opacity="1" fill-rule="nonzero"/></g></g><g clip-path="url(#f68ce15bf3)"><path stroke-linecap="butt" transform="matrix(1.200107, 0, 0, 1.200107, 102.731106, -3.490509)" fill="none" stroke-linejoin="miter" d="M 11.411214 8.64692 L 11.411214 28.999926 L 6.694837 28.999926 L 6.694837 12.422625 L 2.626188 12.422625 L 2.626188 8.64692 Z M 33.593484 24.726218 L 30.276722 24.726218 L 30.276722 28.999926 L 25.684032 28.999926 L 25.684032 24.726218 L 14.721466 24.726218 L 14.721466 21.552672 L 24.320221 8.64692 L 29.261187 8.64692 L 20.365495 20.885414 L 25.833758 20.885414 L 25.833758 17.080414 L 30.276722 17.080414 L 30.276722 20.885414 L 33.593484 20.885414 Z M 33.593484 24.726218 " stroke="#ffffff" stroke-width="3.272062" stroke-opacity="1" stroke-miterlimit="4"/></g><g fill="#a0244f" fill-opacity="1"><g transform="translate(105.637615, 31.312589)"><g><path d="M 10.78125 -24.4375 L 10.78125 0 L 5.125 0 L 5.125 -19.890625 L 0.25 -19.890625 L 0.25 -24.4375 Z M 10.78125 -24.4375 "/></g></g></g><g fill="#a0244f" fill-opacity="1"><g transform="translate(119.317122, 31.312589)"><g><path d="M 23.734375 -5.125 L 19.75 -5.125 L 19.75 0 L 14.234375 0 L 14.234375 -5.125 L 1.078125 -5.125 L 1.078125 -8.9375 L 12.59375 -24.4375 L 18.53125 -24.4375 L 7.859375 -9.734375 L 14.421875 -9.734375 L 14.421875 -14.3125 L 19.75 -14.3125 L 19.75 -9.734375 L 23.734375 -9.734375 Z M 23.734375 -5.125 "/></g></g></g></svg>